<?xml version="1.0" encoding="utf-8"?>
<!-- Generator: Adobe Illustrator 16.0.0, SVG Export Plug-In . SVG Version: 6.00 Build 0)  -->
<!DOCTYPE svg PUBLIC "-//W3C//DTD SVG 1.1//EN" "http://www.w3.org/Graphics/SVG/1.1/DTD/svg11.dtd">
<svg version="1.1" id="Layer_1" xmlns="http://www.w3.org/2000/svg" xmlns:xlink="http://www.w3.org/1999/xlink" x="0px" y="0px"
	 width="512px" height="512px" viewBox="0 0 512 512" enable-background="new 0 0 512 512" xml:space="preserve">
<path fill-rule="evenodd" clip-rule="evenodd" d="M311.164,282.519c8.449-8.289,11.385-29.254,19.12-36.81
	c10.955-10.706,22.845-23.883,26.209-40.334c4.514-21.86-4.653-24.635-4.653-32.189c0-15.827-0.144-41.822-5.086-58.706
	c-0.284-22.271-3.938-31.957-11.602-40.299c-7.23-7.806-24.992-5.962-34.268-11.101c-14.355-7.967-26.153-10.993-41.212-11.386
	v-0.089c-0.446,0-0.876,0.053-1.322,0.053c-0.735,0-1.434-0.053-2.204-0.053l0.037,0.142c-36.684,1.379-75.713,24.509-89.123,61.712
	c-4.976,13.785-3.08,43.899-3.08,59.726c0,7.555-9.166,10.329-4.653,32.189c3.382,16.451,15.254,29.628,26.209,40.334
	c7.736,7.556,10.671,28.521,19.102,36.81c1.844,12.21,2.059,8.719,1.988,19.891c-0.019,3.777,0.107,9.632-5.925,15.396
	c-11.405,10.921-37.597,34.607-59.082,43.827c-28.32,12.156-74.37,31.6-84.985,37.077S18,419.029,18,428.481
	c0,9.472,0,44.33,0,44.33h237.287h5.427H498c0,0,0-34.858,0-44.33c0-9.452-27.999-24.295-38.637-29.772
	c-10.633-5.478-56.643-24.921-84.966-37.077c-20.912-8.969-46.298-31.67-58.151-42.931c-4.009-3.795-6.838-7.771-6.875-17.438
	c-0.069-11.242,0.218-6.946,2.007-18.744"/>
</svg>
