<?xml version="1.0" encoding="utf-8"?>
<!-- Generator: Adobe Illustrator 16.0.0, SVG Export Plug-In . SVG Version: 6.00 Build 0)  -->
<!DOCTYPE svg PUBLIC "-//W3C//DTD SVG 1.1//EN" "http://www.w3.org/Graphics/SVG/1.1/DTD/svg11.dtd">
<svg version="1.1" id="Layer_1" xmlns="http://www.w3.org/2000/svg" xmlns:xlink="http://www.w3.org/1999/xlink" x="0px" y="0px"
	 width="512px" height="512px" viewBox="0 0 512 512" enable-background="new 0 0 512 512" xml:space="preserve">
<g>
	<path d="M176.008,416c-26.5,0-48,21.469-48,48s21.5,48,48,48s48-21.469,48-48S202.508,416,176.008,416z"/>
	<path d="M303.992,416c-26.516,0-47.984,21.469-47.984,48s21.469,48,47.984,48c26.563,0,48-21.469,48-48S330.555,416,303.992,416z"
		/>
	<path d="M495.992,0h-80c-7.688,0-14.313,5.531-15.75,13.125L390.992,64H16.008c-5.344,0-10.344,2.688-13.313,7.125
		S-0.82,81.219,1.242,86.156l80,192c2.484,5.969,8.313,9.844,14.766,9.844h254.297l-11.625,64H128.008c-8.844,0-16,7.156-16,16
		s7.156,16,16,16h223.984c7.75,0,14.375-5.531,15.75-13.125L429.367,32h66.625c8.875,0,16-7.156,16-16S504.867,0,495.992,0z"/>
</g>
</svg>
